<?xml version="1.0" encoding="UTF-8" standalone="no"?>
<svg
   xmlns:dc="http://purl.org/dc/elements/1.1/"
   xmlns:cc="http://creativecommons.org/ns#"
   xmlns:rdf="http://www.w3.org/1999/02/22-rdf-syntax-ns#"
   xmlns:svg="http://www.w3.org/2000/svg"
   xmlns="http://www.w3.org/2000/svg"
   viewBox="0 0 217.78667 92.026665"
   height="92.026665"
   width="217.78667"
   xml:space="preserve"
   id="svg2"
   version="1.1"><metadata
     id="metadata8"><rdf:RDF><cc:Work
         rdf:about=""><dc:format>image/svg+xml</dc:format><dc:type
           rdf:resource="http://purl.org/dc/dcmitype/StillImage" /></cc:Work></rdf:RDF></metadata><defs
     id="defs6" /><g
     transform="matrix(1.3333333,0,0,-1.3333333,0,92.026667)"
     id="g10"><g
       transform="scale(0.1)"
       id="g12"><path
         id="path14"
         style="fill:#1b1615;fill-opacity:1;fill-rule:nonzero;stroke:none"
         d="M 1633.45,-0.00390625 V 412.516 L 1177.99,363.277 V 58.3828 c 0,0 0.36,-6.1797 -9.26,-6.1797 h -18.16 -18.14 c -9.62,0 -9.26,6.1797 -9.26,6.1797 V 195.418 357.34 l -19.22,-2.082 V 58.3828 c 0,0 0.36,-6.1797 -9.26,-6.1797 h -18.16 -18.14 c -9.62,0 -9.26,6.1797 -9.26,6.1797 V 195.418 349.34 L 783.145,320.582 v -97.637 c 2.343,0.059 6.902,0.84 11.222,5.457 6.121,6.555 17.805,18.379 30.602,18.379 12.82,0 48.422,-10.039 48.422,-91.562 0,-81.5237 -33.461,-105.7229 -48.422,-105.7229 -8.18,0 -17.004,-0.418 -26.68,8.1836 -11.043,9.8359 -10.621,10.957 -13.465,10.5391 -0.617,-0.0977 -1.679,-0.6368 -1.679,-1.836 v -8 c 0,0 0.363,-6.1797 -9.258,-6.1797 H 755.75 737.59 c -9.602,0 -9.262,6.1797 -9.262,6.1797 V 195.418 314.664 L 122.609,249.156 V -0.00390625 Z M 558.969,191 c 0,0 0.179,-4.824 -3.563,-4.824 -3.195,0 -42.261,2.863 -42.277,-25.594 V 58.3828 c 0,0 0.359,-6.1601 -9.262,-6.1601 H 485.711 467.57 c -9.625,0 -9.261,6.1601 -9.261,6.1601 v 131.6992 5.336 41.805 c 0,5.398 7.117,4.832 7.117,4.832 h 20.285 20.297 c 0,0 7.121,0.566 7.121,-4.832 v -14.368 c 2.379,0.168 7.199,1.067 11.32,5.688 5.699,6.414 15.996,18.16 30.957,18.16 3.063,0 3.563,-1.785 3.563,-4.629 z m 152.918,-58.223 c -1.797,-5.976 -11.039,-5.515 -11.039,-5.515 h -74.739 c 0,-15.137 0.739,-32.0432 18.258,-32.0432 12.461,0 14.883,8.3592 15.942,12.2772 1.281,4.981 8.339,4.285 8.339,4.285 h 32.016 c 6.945,0 6.602,-5.34 6.602,-5.34 0,0 3.562,-59.1012 -65.141,-59.1012 -68.695,0 -72.437,85.4372 -72.437,85.4372 0,0 -13.54,113.36 71.539,113.36 85.781,0 72.66,-106.719 70.66,-113.36 m 317.643,0 c -1.78,-5.976 -11.02,-5.515 -11.02,-5.515 h -74.764 c 0,-15.137 0.762,-32.0432 18.262,-32.0432 12.461,0 14.879,8.3592 15.937,12.2772 1.305,4.981 8.34,4.285 8.34,4.285 h 32.045 c 6.94,0 6.58,-5.34 6.58,-5.34 0,0 3.56,-59.1012 -65.144,-59.1012 -68.7,0 -72.442,85.4372 -72.442,85.4372 0,0 -13.515,113.36 71.543,113.36 85.803,0 72.663,-106.719 70.663,-113.36 m 174.02,104.426 c 0,5.418 7.12,4.832 7.12,4.832 h 20.3 20.28 c 0,0 7.12,0.586 7.12,-4.832 V 58.3828 c 0,0 0.36,-6.1797 -9.26,-6.1797 h -18.14 -18.16 c -9.62,0 -9.26,6.1797 -9.26,6.1797 V 195.418 Z m 60.34,57.352 c 0,-17.793 -14.74,-32.215 -32.92,-32.215 -18.2,0 -32.94,14.422 -32.94,32.215 0,17.785 14.74,32.207 32.94,32.207 18.18,0 32.92,-14.422 32.92,-32.207 M 1424.19,146.5 v 0 c 0,-94.8828 -58,-97.4023 -68.04,-97.4023 -1.22,0 -2.84,-0.0586 -4.62,-0.0586 -1.92,0 -3.92,0.1367 -5.14,0.1367 -10.02,0 -67.9,8.6015 -67.9,97.3242 v 0.02 0.039 c 0.02,102.078 64.64,99.597 71.32,99.597 0.46,0 1,-0.039 1.52,-0.078 0.54,0.039 1.08,0.078 1.52,0.078 6.7,0 71.3,2.481 71.34,-99.597 v -0.039 z m 148.44,48.918 V 58.3828 c 0,0 0.36,-6.1797 -9.26,-6.1797 h -18.16 -15.18 c -9.62,0 -9.26,6.1797 -9.26,6.1797 V 175.836 c 0,0 1,12.82 -8.54,12.82 -11.72,0 -15.76,-8.758 -15.78,-12.715 V 58.3828 c 0,0 0.36,-6.1797 -9.26,-6.1797 h -18.16 -18.14 c -9.62,0 -9.26,6.1797 -9.26,6.1797 v 137.0352 41.785 c 0,5.418 7.12,4.832 7.12,4.832 h 20.28 20.3 c 0,0 7.12,0.586 7.12,-4.832 v -14.328 c 4.24,0.168 7.58,2.121 8.68,2.941 3.42,2.567 16.38,20.86 33.68,20.86 37.72,0 33.82,-51.258 33.82,-51.258 m -206.4,-46.301 c 0,0.965 0.14,13.887 -0.94,27.188 -1.12,13.836 -13.74,13.074 -13.74,13.074 0,0 -12.62,0.762 -13.74,-13.074 -1.08,-13.301 -0.96,-26.223 -0.94,-27.188 -0.02,-0.976 -0.14,-15.215 0.94,-28.515 0.64,-8 5.14,-11.106 8.82,-12.325 2.5,-1.093 4.7,-0.957 4.7,-0.957 0,0 1.62,-0.097 3.64,0.555 3.84,0.82 9.58,3.586 10.32,12.727 1.08,13.3 0.94,27.539 0.94,28.515 m -386.98,22.207 c 0,0 0.277,24.813 -17.242,24.813 -17.02,0 -18.442,-20.535 -18.442,-24.735 0,-4.199 8.204,-3.925 8.204,-3.925 h 19.218 c 9.239,0 8.262,3.847 8.262,3.847 m -317.66,0 c 0,0 0.277,24.813 -17.223,24.813 -17.015,0 -18.437,-20.535 -18.437,-24.735 0,-4.199 8.179,-3.925 8.179,-3.925 h 19.219 c 9.262,0 8.262,3.847 8.262,3.847 m 120.676,-22.207 c 0,-0.976 -0.141,-13.898 0.945,-27.199 1.117,-13.816 13.738,-13.074 13.738,-13.074 0,0 12.617,-0.742 13.742,13.074 1.079,13.301 0.938,26.223 0.938,27.199 0,0.965 0.141,13.887 -0.938,27.188 -1.125,13.836 -13.742,13.074 -13.742,13.074 0,0 -12.621,0.762 -13.738,-13.074 -1.086,-13.301 -0.945,-26.223 -0.945,-27.188" /><path
         id="path16"
         style="fill:#1b1615;fill-opacity:1;fill-rule:nonzero;stroke:none"
         d="m 1510.84,440.992 v 249.16 H 0 v -412.5 l 1059.68,114.559 c -20.18,5.488 -55.64,25.527 -55.64,95.207 v 0.039 0.039 c 0.02,102.078 64.64,99.598 71.32,99.598 0.46,0 1,-0.039 1.52,-0.078 0.54,0.039 1.08,0.078 1.52,0.078 6.7,0 71.3,2.48 71.34,-99.598 0,-0.019 0,-0.019 0,-0.039 0,0 0,-0.019 0,-0.039 0,-55.625 -19.92,-79.387 -38.44,-89.621 l 53.52,5.781 v 132.199 41.778 c 0,5.418 7.12,4.843 7.12,4.843 h 20.28 20.28 c 0,0 7.12,0.575 7.12,-4.843 v -14.317 c 4.24,0.157 7.6,2.117 8.7,2.938 3.4,2.558 16.36,20.859 33.66,20.859 37.74,0 33.82,-51.258 33.82,-51.258 V 417.758 Z M 933.02,577.555 c 0,5.418 7.117,4.843 7.117,4.843 h 20.285 20.297 c 0,0 7.121,0.575 7.121,-4.843 v -178.84 c 0,0 0.359,-6.16 -9.258,-6.16 h -18.16 -18.141 c -9.625,0 -9.261,6.16 -9.261,6.16 v 137.062 z m -440.68,0 c 0,5.418 7.121,4.843 7.121,4.843 h 20.301 20.281 c 0,0 7.117,0.575 7.117,-4.843 v -178.84 c 0,0 0.36,-6.16 -9.258,-6.16 h -18.14 -18.164 c -9.618,0 -9.258,6.16 -9.258,6.16 V 535.777 Z M 214.02,473.121 C 212.238,467.133 203,467.594 203,467.594 h -74.762 c 0,-15.117 0.742,-32.024 18.262,-32.024 12.461,0 14.879,8.36 15.938,12.285 1.285,4.981 8.339,4.258 8.339,4.258 h 32.043 c 6.942,0 6.582,-5.34 6.582,-5.34 0,0 3.559,-59.074 -65.14,-59.074 -68.7034,0 -72.4456,85.422 -72.4456,85.422 0,0 -13.5195,113.379 71.5426,113.379 85.801,0 72.664,-106.719 70.661,-113.379 m 156.757,-80.566 h -49.316 c 0,0 -5.281,0 -8.34,5.457 -2.801,5 -17.441,36.66 -17.441,36.66 0,0 -1.422,2.844 -4.282,2.844 -2.835,0 -4.257,-2.844 -4.257,-2.844 0,0 -14.637,-31.66 -17.442,-36.66 -3.058,-5.457 -8.34,-5.457 -8.34,-5.457 H 212.02 c -5.34,0 0,8.66 0,8.66 0,0 48.058,80.441 49.843,84.18 1.778,3.742 0,7.656 0,7.656 0,0 -43.242,77.246 -46.984,83.828 -3.738,6.594 6.582,5.519 6.582,5.519 h 44.316 c 7.825,0 9.602,-4.98 9.602,-4.98 0,0 11.039,-25.625 12.82,-29.543 1.918,-4.48 3.199,-3.914 3.199,-3.914 0,0 1.145,-0.566 3.223,3.914 1.777,3.918 12.797,29.543 12.797,29.543 0,0 1.781,4.98 9.621,4.98 h 44.32 c 0,0 10.321,1.075 6.582,-5.519 -3.742,-6.582 -46.98,-83.828 -46.98,-83.828 0,0 -1.781,-3.914 0,-7.656 1.781,-3.739 49.816,-84.18 49.816,-84.18 0,0 5.344,-8.66 0,-8.66 m 101.164,149.121 c 0,0 0.297,-5.899 -5.82,-5.899 H 454.078 V 398.715 c 0,0 0.363,-6.16 -9.258,-6.16 h -18.14 -18.157 c -9.625,0 -9.265,6.16 -9.265,6.16 v 137.062 h -12.02 c -6.136,0 -5.84,5.899 -5.84,5.899 v 35.183 c 0,5.539 5.403,5.539 5.403,5.539 h 12.457 v 47.137 c 0,5.403 7.121,4.844 7.121,4.844 h 20.301 20.281 c 0,0 7.117,0.559 7.117,-4.844 v -47.137 h 12.461 c 0,0 5.402,0 5.402,-5.539 z m 80.743,93.222 c 0,-17.785 -14.743,-32.199 -32.922,-32.199 -18.203,0 -32.946,14.414 -32.946,32.199 0,17.801 14.743,32.215 32.946,32.215 18.179,0 32.922,-14.414 32.922,-32.215 M 697.922,535.777 V 398.715 c 0,0 0.336,-6.16 -9.262,-6.16 H 670.5 655.32 c -9.621,0 -9.257,6.16 -9.257,6.16 v 117.48 c 0,0 1,12.805 -8.543,12.805 -11.723,0 -15.762,-8.742 -15.782,-12.707 V 398.715 c 0,0 0.364,-6.16 -9.258,-6.16 H 594.316 576.18 c -9.621,0 -9.258,6.16 -9.258,6.16 v 137.062 41.778 c 0,5.418 7.117,4.843 7.117,4.843 h 20.277 20.305 c 0,0 7.117,0.575 7.117,-4.843 v -14.317 c 4.239,0.157 7.578,2.117 8.684,2.938 3.418,2.558 16.379,20.859 33.676,20.859 37.718,0 33.824,-51.258 33.824,-51.258 M 813.238,410.336 c 0,0 0.106,-4.121 -1.699,-8.398 -5.781,-11.122 -26.738,-12.188 -32.117,-12.188 -10.039,0 -67.961,-4.395 -67.981,97.688 v 0.058 c 0.02,102.078 64.641,99.598 71.34,99.598 5.36,0 16.699,-2.274 22.059,-6.543 1.699,-1.356 5.117,-3.856 6.699,-7.559 1.805,-4.277 1.699,-8.398 1.699,-8.398 v -31.141 c 0,-5.879 -4.437,-3.918 -4.437,-3.918 0,0 -7.481,3.742 -12.461,3.742 -24.16,0 -24.18,-44.277 -24.18,-45.781 v -0.039 -0.019 c 0,-1.504 0.02,-45.782 24.18,-45.782 4.98,0 12.461,3.739 12.461,3.739 0,0 4.437,1.964 4.437,-3.915 z m 106.946,131.34 c 0,0 0.277,-5.899 -5.844,-5.899 H 902.301 V 398.715 c 0,0 0.355,-6.16 -9.262,-6.16 h -18.141 -18.16 c -9.597,0 -9.258,6.16 -9.258,6.16 v 137.062 h -12.019 c -6.121,0 -5.84,5.899 -5.84,5.899 v 35.183 c 0,5.539 5.399,5.539 5.399,5.539 h 12.46 v 47.137 c 0,5.403 7.122,4.844 7.122,4.844 h 20.296 20.286 c 0,0 7.117,0.559 7.117,-4.844 v -47.137 h 12.457 c 0,0 5.426,0 5.426,-5.539 z m 73.175,93.222 c 0,-17.785 -14.738,-32.199 -32.937,-32.199 -18.184,0 -32.918,14.414 -32.918,32.199 0,17.801 14.734,32.215 32.918,32.215 18.199,0 32.937,-14.414 32.937,-32.215 M 163.723,511.676 c 0,0 0.297,24.804 -17.223,24.804 -17.02,0 -18.441,-20.546 -18.441,-24.746 0,-4.199 8.183,-3.898 8.183,-3.898 h 19.238 c 9.239,0 8.243,3.84 8.243,3.84 m 898.697,-21.641 c 0,-0.957 -0.14,-15.195 0.94,-28.496 0.64,-7.996 5.14,-11.121 8.82,-12.324 2.5,-1.094 4.7,-0.957 4.7,-0.957 0,0 1.62,-0.098 3.64,0.555 3.84,0.82 9.58,3.585 10.32,12.726 1.08,13.301 0.94,27.539 0.94,28.496 0,0.957 0.14,13.875 -0.94,27.195 -1.12,13.829 -13.74,13.086 -13.74,13.086 0,0 -12.62,0.743 -13.74,-13.086 -1.08,-13.32 -0.94,-26.238 -0.94,-27.195 m 157.2,26.258 V 409.516 l 24.34,2.617 v 104.062 c 0,0 0.98,12.805 -8.56,12.805 -11.72,0 -15.76,-8.742 -15.78,-12.707" /></g></g></svg>